<?xml version="1.0" encoding="UTF-8"?>
<svg xmlns="http://www.w3.org/2000/svg" viewBox="0 0 1280 720" width="1280" height="720" font-family="Inter, -apple-system, BlinkMacSystemFont, 'Segoe UI', Helvetica, Arial, sans-serif">
<defs><marker id="a-cyan" viewBox="0 0 10 10" refX="9" refY="5" markerWidth="6" markerHeight="6" orient="auto-start-reverse"><path d="M0 0 L10 5 L0 10 z" fill="#6ce0ff"/></marker><marker id="a-purple" viewBox="0 0 10 10" refX="9" refY="5" markerWidth="6" markerHeight="6" orient="auto-start-reverse"><path d="M0 0 L10 5 L0 10 z" fill="#b58bff"/></marker><marker id="a-ok" viewBox="0 0 10 10" refX="9" refY="5" markerWidth="6" markerHeight="6" orient="auto-start-reverse"><path d="M0 0 L10 5 L0 10 z" fill="#3ad29f"/></marker><marker id="a-bad" viewBox="0 0 10 10" refX="9" refY="5" markerWidth="6" markerHeight="6" orient="auto-start-reverse"><path d="M0 0 L10 5 L0 10 z" fill="#ff6b8b"/></marker><marker id="a-warn" viewBox="0 0 10 10" refX="9" refY="5" markerWidth="6" markerHeight="6" orient="auto-start-reverse"><path d="M0 0 L10 5 L0 10 z" fill="#ffcf6b"/></marker><marker id="a-muted" viewBox="0 0 10 10" refX="9" refY="5" markerWidth="6" markerHeight="6" orient="auto-start-reverse"><path d="M0 0 L10 5 L0 10 z" fill="#8a95c0"/></marker><marker id="a-ink" viewBox="0 0 10 10" refX="9" refY="5" markerWidth="6" markerHeight="6" orient="auto-start-reverse"><path d="M0 0 L10 5 L0 10 z" fill="#e7ecff"/></marker><radialGradient id="halo" cx="72%" cy="-6%" r="80%"><stop offset="0" stop-color="#1a2450"/><stop offset="1" stop-color="#0b1020"/></radialGradient><linearGradient id="glass" x1="0" y1="0" x2="0" y2="1"><stop offset="0" stop-color="#6ce0ff" stop-opacity="0.14"/><stop offset="1" stop-color="#b58bff" stop-opacity="0.05"/></linearGradient><pattern id="grid" width="48" height="48" patternUnits="userSpaceOnUse"><path d="M48 0 H0 V48" fill="none" stroke="#263056" stroke-width="1"/></pattern><linearGradient id="tlogo" x1="183" y1="192" x2="0" y2="0" gradientUnits="userSpaceOnUse"><stop stop-color="#444CE7"/><stop offset="1" stop-color="#B664FF"/></linearGradient><filter id="glow" x="-40%" y="-40%" width="180%" height="180%"><feGaussianBlur stdDeviation="3.2" result="b"/><feMerge><feMergeNode in="b"/><feMergeNode in="SourceGraphic"/></feMerge></filter></defs>
<rect width="1280" height="720" fill="url(#halo)"/>
<rect width="1280" height="720" fill="url(#grid)" opacity="0.35"/>
<rect x="72" y="60" width="5" height="92" rx="2.5" fill="#ffcf6b"/>
<text x="100" y="100" font-size="42" fill="#e7ecff" font-weight="700" text-anchor="start" font-family="Inter, -apple-system, BlinkMacSystemFont, 'Segoe UI', Helvetica, Arial, sans-serif" opacity="1.0">Requirement 6: every system, not just the booth</text>
<text x="100" y="140" font-size="21" fill="#8a95c0" font-weight="400" text-anchor="start" font-family="Inter, -apple-system, BlinkMacSystemFont, 'Segoe UI', Helvetica, Arial, sans-serif" opacity="1.0">The Circuits of History is one workflow out of forty-eight.</text>
<rect x="96" y="182" width="250" height="74" rx="12" fill="#141b32" fill-opacity="0.85" stroke="#6ce0ff" stroke-width="1.6"/>
<text x="114" y="214" font-size="15" fill="#e7ecff" font-weight="600" text-anchor="start" font-family="'JetBrains Mono', 'SF Mono', Menlo, ui-monospace, monospace" opacity="1.0">ChronoTripWorkflow</text>
<text x="114" y="237" font-size="12" fill="#8a95c0" font-weight="400" text-anchor="start" font-family="Inter, -apple-system, BlinkMacSystemFont, 'Segoe UI', Helvetica, Arial, sans-serif" opacity="1.0">must satisfy all five requirements</text>
<rect x="370" y="182" width="250" height="74" rx="12" fill="#141b32" fill-opacity="0.85" stroke="#8a95c0" stroke-width="1.6"/>
<text x="388" y="214" font-size="15" fill="#8a95c0" font-weight="600" text-anchor="start" font-family="'JetBrains Mono', 'SF Mono', Menlo, ui-monospace, monospace" opacity="1.0">BoothMaintenance</text>
<text x="388" y="237" font-size="12" fill="#8a95c0" font-weight="400" text-anchor="start" font-family="Inter, -apple-system, BlinkMacSystemFont, 'Segoe UI', Helvetica, Arial, sans-serif" opacity="1.0">must satisfy all five requirements</text>
<rect x="644" y="182" width="250" height="74" rx="12" fill="#141b32" fill-opacity="0.85" stroke="#8a95c0" stroke-width="1.6"/>
<text x="662" y="214" font-size="15" fill="#8a95c0" font-weight="600" text-anchor="start" font-family="'JetBrains Mono', 'SF Mono', Menlo, ui-monospace, monospace" opacity="1.0">LicenseRenewal</text>
<text x="662" y="237" font-size="12" fill="#8a95c0" font-weight="400" text-anchor="start" font-family="Inter, -apple-system, BlinkMacSystemFont, 'Segoe UI', Helvetica, Arial, sans-serif" opacity="1.0">must satisfy all five requirements</text>
<rect x="918" y="182" width="250" height="74" rx="12" fill="#141b32" fill-opacity="0.85" stroke="#8a95c0" stroke-width="1.6"/>
<text x="936" y="214" font-size="15" fill="#8a95c0" font-weight="600" text-anchor="start" font-family="'JetBrains Mono', 'SF Mono', Menlo, ui-monospace, monospace" opacity="1.0">ParadoxCleanup</text>
<text x="936" y="237" font-size="12" fill="#8a95c0" font-weight="400" text-anchor="start" font-family="Inter, -apple-system, BlinkMacSystemFont, 'Segoe UI', Helvetica, Arial, sans-serif" opacity="1.0">must satisfy all five requirements</text>
<rect x="96" y="274" width="250" height="74" rx="12" fill="#141b32" fill-opacity="0.85" stroke="#8a95c0" stroke-width="1.6"/>
<text x="114" y="306" font-size="15" fill="#8a95c0" font-weight="600" text-anchor="start" font-family="'JetBrains Mono', 'SF Mono', Menlo, ui-monospace, monospace" opacity="1.0">TravelerBilling</text>
<text x="114" y="329" font-size="12" fill="#8a95c0" font-weight="400" text-anchor="start" font-family="Inter, -apple-system, BlinkMacSystemFont, 'Segoe UI', Helvetica, Arial, sans-serif" opacity="1.0">must satisfy all five requirements</text>
<rect x="370" y="274" width="250" height="74" rx="12" fill="#141b32" fill-opacity="0.85" stroke="#8a95c0" stroke-width="1.6"/>
<text x="388" y="306" font-size="15" fill="#8a95c0" font-weight="600" text-anchor="start" font-family="'JetBrains Mono', 'SF Mono', Menlo, ui-monospace, monospace" opacity="1.0">HistoryReportGrade</text>
<text x="388" y="329" font-size="12" fill="#8a95c0" font-weight="400" text-anchor="start" font-family="Inter, -apple-system, BlinkMacSystemFont, 'Segoe UI', Helvetica, Arial, sans-serif" opacity="1.0">must satisfy all five requirements</text>
<rect x="644" y="274" width="250" height="74" rx="12" fill="#141b32" fill-opacity="0.85" stroke="#8a95c0" stroke-width="1.6"/>
<text x="662" y="306" font-size="15" fill="#8a95c0" font-weight="600" text-anchor="start" font-family="'JetBrains Mono', 'SF Mono', Menlo, ui-monospace, monospace" opacity="1.0">BandBookingWorkflow</text>
<text x="662" y="329" font-size="12" fill="#8a95c0" font-weight="400" text-anchor="start" font-family="Inter, -apple-system, BlinkMacSystemFont, 'Segoe UI', Helvetica, Arial, sans-serif" opacity="1.0">must satisfy all five requirements</text>
<rect x="918" y="274" width="250" height="74" rx="12" fill="#141b32" fill-opacity="0.85" stroke="#8a95c0" stroke-width="1.6"/>
<text x="936" y="306" font-size="15" fill="#8a95c0" font-weight="600" text-anchor="start" font-family="'JetBrains Mono', 'SF Mono', Menlo, ui-monospace, monospace" opacity="1.0">DeNomolosWatch</text>
<text x="936" y="329" font-size="12" fill="#8a95c0" font-weight="400" text-anchor="start" font-family="Inter, -apple-system, BlinkMacSystemFont, 'Segoe UI', Helvetica, Arial, sans-serif" opacity="1.0">must satisfy all five requirements</text>
<text x="1184" y="366" font-size="15" fill="#8a95c0" font-weight="400" text-anchor="end" font-family="Inter, -apple-system, BlinkMacSystemFont, 'Segoe UI', Helvetica, Arial, sans-serif" opacity="1.0">…and forty more</text>
<rect x="96" y="388" width="1088" height="214" rx="16" fill="#141b32" fill-opacity="1.0" stroke="#ff6b8b" stroke-width="1.6"/>
<text x="118" y="422" font-size="17" fill="#ff6b8b" font-weight="700" text-anchor="start" font-family="Inter, -apple-system, BlinkMacSystemFont, 'Segoe UI', Helvetica, Arial, sans-serif" opacity="1.0" letter-spacing="1.2">THE OBVIOUS ANSWER: PUT IT IN EVERY WORKFLOW</text>
<line x1="118" y1="438" x2="1162" y2="438" stroke="#263056" stroke-width="1"/>
<text x="640" y="470" font-size="25" fill="#ff6b8b" font-weight="700" text-anchor="middle" font-family="'JetBrains Mono', 'SF Mono', Menlo, ui-monospace, monospace" opacity="1.0">5 requirements × 48 workflows × every activity inside them</text>
<circle cx="150" cy="528" r="11" fill="#ff6b8b" fill-opacity="0.15" stroke="#ff6b8b" stroke-width="1.8"/><path d="M144 522 l12 12 M156 522 l-12 12" fill="none" stroke="#ff6b8b" stroke-width="2.8" stroke-linecap="round"/>
<text x="174" y="534" font-size="17" fill="#e7ecff" font-weight="400" text-anchor="start" font-family="Inter, -apple-system, BlinkMacSystemFont, 'Segoe UI', Helvetica, Arial, sans-serif" opacity="1.0">drifts inside a week</text>
<circle cx="150" cy="564" r="11" fill="#ff6b8b" fill-opacity="0.15" stroke="#ff6b8b" stroke-width="1.8"/><path d="M144 558 l12 12 M156 558 l-12 12" fill="none" stroke="#ff6b8b" stroke-width="2.8" stroke-linecap="round"/>
<text x="174" y="570" font-size="17" fill="#e7ecff" font-weight="400" text-anchor="start" font-family="Inter, -apple-system, BlinkMacSystemFont, 'Segoe UI', Helvetica, Arial, sans-serif" opacity="1.0">missing on workflow forty-nine</text>
<circle cx="670" cy="528" r="11" fill="#ff6b8b" fill-opacity="0.15" stroke="#ff6b8b" stroke-width="1.8"/><path d="M664 522 l12 12 M676 522 l-12 12" fill="none" stroke="#ff6b8b" stroke-width="2.8" stroke-linecap="round"/>
<text x="694" y="534" font-size="17" fill="#e7ecff" font-weight="400" text-anchor="start" font-family="Inter, -apple-system, BlinkMacSystemFont, 'Segoe UI', Helvetica, Arial, sans-serif" opacity="1.0">no review can enforce it</text>
<circle cx="670" cy="564" r="11" fill="#ff6b8b" fill-opacity="0.15" stroke="#ff6b8b" stroke-width="1.8"/><path d="M664 558 l12 12 M676 558 l-12 12" fill="none" stroke="#ff6b8b" stroke-width="2.8" stroke-linecap="round"/>
<text x="694" y="570" font-size="17" fill="#e7ecff" font-weight="400" text-anchor="start" font-family="Inter, -apple-system, BlinkMacSystemFont, 'Segoe UI', Helvetica, Arial, sans-serif" opacity="1.0">still absent from the next system</text>
<text x="640" y="654" font-size="21" fill="#ffcf6b" font-weight="400" text-anchor="middle" font-family="Inter, -apple-system, BlinkMacSystemFont, 'Segoe UI', Helvetica, Arial, sans-serif" opacity="1.0">So where does something go when every workflow needs it and no workflow should own it?</text>
<g transform="translate(1120 366) scale(0.8)"><g transform="rotate(-24) translate(-30 -6)" opacity="0.85"><ellipse cx="0" cy="0" rx="13" ry="16" fill="#141b32" stroke="#b58bff" stroke-width="1.8"/><rect x="-2.5" y="-46" width="5" height="32" rx="2" fill="#141b32" stroke="#b58bff" stroke-width="1.6"/><circle cx="0" cy="2" r="4" fill="none" stroke="#b58bff" stroke-width="1.4"/></g><path d="M-27 20 L-23 -24 Q-23 -38 0 -38 Q23 -38 23 -24 L27 20 Z" fill="#1b2444" stroke="#6ce0ff" stroke-width="2.2" stroke-linejoin="round"/><path d="M0 -34 V20" stroke="#6ce0ff" stroke-width="1.4" opacity="0.7"/><path d="M-11 -36 l11 10 11 -10" fill="none" stroke="#6ce0ff" stroke-width="1.8"/><circle cx="0" cy="-54" r="17" fill="#1b2444" stroke="#6ce0ff" stroke-width="2.2"/><path d="M-17 -56 q0 -17 17 -17 q17 0 17 17 q-5 -9 -17 -9 q-12 0 -17 9 z" fill="#263056" stroke="#6ce0ff" stroke-width="1.8"/><rect x="-12" y="-60" width="24" height="8" rx="3" fill="#0d132a" stroke="#6ce0ff" stroke-width="1.6"/><path d="M-11 -47 q11 13 22 0 q-3 11 -11 11 q-8 0 -11 -11 z" fill="#263056" stroke="#6ce0ff" stroke-width="1.6"/></g>
</svg>
